<svg width="26" height="18" viewBox="0 0 26 18" fill="none" xmlns="http://www.w3.org/2000/svg">
<path opacity="0.4" d="M18.4853 7.21424L23.8286 6.72351C25.0278 6.72351 26 7.74297 26 9.00036C26 10.2577 25.0278 11.2772 23.8286 11.2772L18.4853 10.7865C17.5446 10.7865 16.7819 9.98678 16.7819 9.00036C16.7819 8.01229 17.5446 7.21424 18.4853 7.21424Z" fill="currentColor"/>
<path d="M0.542129 7.30469C0.625643 7.21712 0.937641 6.84701 1.23073 6.53969C2.94041 4.61477 7.4045 1.46717 9.73975 0.503886C10.0943 0.350224 10.9909 0.0230711 11.4715 -6.08948e-05C11.93 -6.09148e-05 12.3681 0.110642 12.7857 0.328744C13.3072 0.634417 13.7232 1.11688 13.9533 1.68527C14.0998 2.07851 14.3299 3.2599 14.3299 3.28138C14.5584 4.57181 14.6829 6.67022 14.6829 8.99003C14.6829 11.1975 14.5584 13.21 14.3709 14.5219C14.3504 14.545 14.1203 16.0106 13.8698 16.5129C13.4112 17.4316 12.5146 17.9999 11.555 17.9999L11.4715 17.9999C10.8459 17.9785 9.53175 17.4084 9.53175 17.3886C7.32098 16.4253 2.96247 13.4297 1.21024 11.4387C1.21024 11.4387 0.715461 10.9265 0.501159 10.6076C0.167101 10.1483 7.2898e-05 9.57989 7.28732e-05 9.01151C7.28454e-05 8.37703 0.187586 7.78716 0.542129 7.30469Z" fill="currentColor"/>
</svg>
