<svg width="30" height="30" viewBox="0 0 30 30" fill="none" xmlns="http://www.w3.org/2000/svg">
<circle cx="15" cy="15" r="15" fill="#272C30"/>
<path d="M10.5385 9.00054H19.4667C19.6701 8.99509 19.8726 9.03114 20.0616 9.10649C20.2507 9.18185 20.4224 9.29493 20.5664 9.43884C20.7103 9.58275 20.8234 9.75447 20.8988 9.94353C20.9742 10.1326 21.0103 10.335 21.0048 10.5385V19.4667C21.0103 19.6702 20.9742 19.8726 20.8989 20.0617C20.8235 20.2508 20.7104 20.4225 20.5665 20.5665C20.4225 20.7104 20.2508 20.8235 20.0617 20.8989C19.8726 20.9742 19.6702 21.0103 19.4667 21.0048H10.5385C10.335 21.0103 10.1326 20.9742 9.94353 20.8988C9.75447 20.8234 9.58275 20.7103 9.43884 20.5664C9.29493 20.4224 9.18185 20.2507 9.10649 20.0616C9.03114 19.8726 8.99509 19.6701 9.00054 19.4667V10.5385C8.99511 10.335 9.03118 10.1326 9.10655 9.94358C9.18192 9.75454 9.29501 9.58282 9.43892 9.43892C9.58282 9.29501 9.75454 9.18192 9.94358 9.10655C10.1326 9.03118 10.335 8.99511 10.5385 9.00054V9.00054Z" stroke="white" stroke-width="0.8" stroke-miterlimit="10" stroke-linecap="round" stroke-linejoin="round"/>
<path d="M17.7409 10.3325C17.5967 10.3326 17.4583 10.39 17.3564 10.492C17.2544 10.594 17.197 10.7323 17.1969 10.8765V12.1708C17.197 12.315 17.2544 12.4533 17.3564 12.5553C17.4583 12.6573 17.5967 12.7147 17.7409 12.7148H19.0914C19.2356 12.7147 19.3739 12.6573 19.4759 12.5553C19.5779 12.4533 19.6353 12.315 19.6354 12.1708V10.8765C19.6353 10.7323 19.5779 10.594 19.4759 10.492C19.3739 10.39 19.2356 10.3326 19.0914 10.3325H17.7409ZM19.6542 14.0839H18.6038C18.7022 14.4189 18.7527 14.7662 18.7539 15.1154C18.7539 17.1035 17.0845 18.7355 15.0213 18.7355C14.4484 18.7531 13.8795 18.6345 13.3613 18.3894C12.8432 18.1443 12.3907 17.7797 12.0409 17.3255C11.6912 16.8714 11.4542 16.3408 11.3495 15.7772C11.2449 15.2136 11.2755 14.6333 11.4388 14.0839H10.3321V19.1483C10.3315 19.21 10.3432 19.2712 10.3666 19.3284C10.3899 19.3856 10.4244 19.4375 10.4681 19.4811C10.5118 19.5248 10.5637 19.5593 10.6209 19.5826C10.678 19.6059 10.7393 19.6176 10.801 19.617H19.1664C19.2282 19.6176 19.2894 19.6059 19.3466 19.5826C19.4038 19.5592 19.4557 19.5247 19.4994 19.481C19.5431 19.4374 19.5776 19.3854 19.6009 19.3283C19.6243 19.2711 19.636 19.2098 19.6354 19.1481L19.6542 14.0839Z" stroke="white" stroke-width="0.8" stroke-miterlimit="10" stroke-linecap="round" stroke-linejoin="round"/>
<path d="M15.0212 12.6389C14.3897 12.63 13.7805 12.8718 13.3269 13.3113C12.8733 13.7507 12.6125 14.3521 12.6016 14.9836C12.6074 15.2953 12.6747 15.6027 12.7995 15.8884C12.9243 16.1741 13.1043 16.4323 13.329 16.6483C13.5538 16.8644 13.8189 17.034 14.1093 17.1474C14.3997 17.2608 14.7096 17.3159 15.0212 17.3094C15.6527 17.3183 16.262 17.0766 16.7156 16.6371C17.1691 16.1976 17.4299 15.5962 17.4409 14.9648C17.435 14.6531 17.3678 14.3456 17.2429 14.0599C17.1181 13.7743 16.9382 13.5161 16.7134 13.3C16.4887 13.084 16.2235 12.9144 15.9332 12.801C15.6428 12.6875 15.3329 12.6325 15.0212 12.6389V12.6389Z" stroke="white" stroke-width="0.8" stroke-miterlimit="10" stroke-linecap="round" stroke-linejoin="round"/>
</svg>
