<svg width="140" height="24" viewBox="0 0 140 24" fill="none" xmlns="http://www.w3.org/2000/svg">
<g id="Ratting">
<path id="Star 6" opacity="0.8" d="M12 0L14.6942 8.2918H23.4127L16.3593 13.4164L19.0534 21.7082L12 16.5836L4.94658 21.7082L7.64074 13.4164L0.587322 8.2918H9.30583L12 0Z" fill="#FFC529"/>
<path id="Star 7" opacity="0.8" d="M41 0L43.6942 8.2918H52.4127L45.3593 13.4164L48.0534 21.7082L41 16.5836L33.9466 21.7082L36.6407 13.4164L29.5873 8.2918H38.3058L41 0Z" fill="#FFC529"/>
<path id="Star 9" opacity="0.8" d="M99 0L101.694 8.2918H110.413L103.359 13.4164L106.053 21.7082L99 16.5836L91.9466 21.7082L94.6407 13.4164L87.5873 8.2918H96.3058L99 0Z" fill="#FFC529"/>
<path id="Star 8" opacity="0.8" d="M70 0L72.6942 8.2918H81.4127L74.3593 13.4164L77.0534 21.7082L70 16.5836L62.9466 21.7082L65.6407 13.4164L58.5873 8.2918H67.3058L70 0Z" fill="#FFC529"/>
<path id="Star 10" opacity="0.8" d="M128 0L130.694 8.2918H139.413L132.359 13.4164L135.053 21.7082L128 16.5836L120.947 21.7082L123.641 13.4164L116.587 8.2918H125.306L128 0Z" fill="#FFC529"/>
</g>
</svg>
