<svg width="30" height="30" viewBox="0 0 30 30" fill="none" xmlns="http://www.w3.org/2000/svg">
<circle cx="15" cy="15" r="15" fill="#272C30"/>
<path d="M20.8583 11.4641C20.6345 11.5543 20.405 11.6273 20.1717 11.6825C20.1493 11.688 20.1259 11.6853 20.1051 11.6749C20.0843 11.6645 20.0672 11.6471 20.0565 11.6252C20.0458 11.6033 20.042 11.5782 20.0458 11.5538C20.0496 11.5294 20.0607 11.507 20.0775 11.4901C20.3451 11.2131 20.5655 10.8875 20.7289 10.528C20.7383 10.5068 20.7413 10.4829 20.7375 10.4597C20.7337 10.4364 20.7233 10.4151 20.7077 10.3986C20.6921 10.3821 20.6721 10.3713 20.6505 10.3678C20.629 10.3642 20.6069 10.368 20.5875 10.3786C20.1638 10.6242 19.7016 10.7827 19.2243 10.846C18.7241 10.3095 18.0495 10.0058 17.3447 9.99976C17.0053 9.99943 16.6691 10.0714 16.3554 10.2116C16.0417 10.3519 15.7567 10.5575 15.5167 10.8169C15.2767 11.0763 15.0863 11.3842 14.9566 11.7232C14.8268 12.0621 14.7602 12.4253 14.7605 12.7921C14.7596 12.9984 14.7792 13.2041 14.8191 13.4057C12.9295 13.3439 10.7237 12.3571 9.43489 10.6415C9.42414 10.627 9.41023 10.6156 9.39439 10.6082C9.37855 10.6009 9.36129 10.5979 9.34412 10.5995C9.32696 10.6012 9.31044 10.6074 9.29603 10.6176C9.28162 10.6278 9.26978 10.6417 9.26154 10.658C9.01319 11.2109 8.93909 11.8364 9.05056 12.439C9.16203 13.0417 9.45294 13.5884 9.87889 13.9956C9.89601 14.0107 9.90827 14.0312 9.91392 14.0542C9.91957 14.0773 9.91832 14.1017 9.91034 14.1239C9.90236 14.1462 9.88806 14.1651 9.8695 14.178C9.85095 14.1909 9.82908 14.1971 9.80705 14.1958C9.58196 14.185 9.36145 14.1235 9.15963 14.0152C9.14322 14.0063 9.1249 14.0021 9.10654 14.0032C9.08817 14.0044 9.07041 14.0107 9.05504 14.0216C9.03967 14.0326 9.02725 14.0477 9.01903 14.0655C9.0108 14.0832 9.00707 14.103 9.00821 14.1229C9.0292 14.6561 9.19986 15.1698 9.4975 15.5958C9.79515 16.0217 10.2057 16.3397 10.6746 16.5075C10.6964 16.516 10.7149 16.532 10.7273 16.5531C10.7397 16.5743 10.7453 16.5992 10.7432 16.6241C10.741 16.649 10.7313 16.6725 10.7154 16.6907C10.6996 16.709 10.6786 16.7211 10.6558 16.725C10.4591 16.7491 10.2606 16.7491 10.0639 16.725C10.047 16.7233 10.0298 16.7261 10.0141 16.733C9.99828 16.74 9.98429 16.751 9.97329 16.7651C9.9623 16.7791 9.95462 16.7959 9.9509 16.8139C9.94719 16.8319 9.94757 16.8505 9.95199 16.8683C10.1293 17.609 11.0154 18.4762 12.0068 18.5951C12.0267 18.5979 12.0454 18.6068 12.0607 18.6208C12.076 18.6348 12.0873 18.6532 12.0932 18.6739C12.099 18.6946 12.0993 18.7167 12.0939 18.7375C12.0884 18.7584 12.0776 18.7771 12.0626 18.7915C11.2359 19.5069 10.1969 19.8739 9.13874 19.8243C9.11503 19.8232 9.09167 19.8308 9.0725 19.8459C9.05334 19.8611 9.03951 19.8828 9.03331 19.9076C9.02711 19.9323 9.0289 19.9586 9.03838 19.9821C9.04787 20.0056 9.06448 20.025 9.08549 20.0369C10.202 20.6696 11.444 21 12.7048 20.9996C13.6846 21.0066 14.6554 20.7976 15.5578 20.3854C16.4603 19.9731 17.2755 19.3664 17.9536 18.6021C18.6316 17.8379 19.1583 16.9322 19.5014 15.9406C19.8445 14.9489 19.9968 13.892 19.949 12.8346V12.7287C20.3457 12.4284 20.6938 12.0594 20.9795 11.6367C20.9929 11.6171 21.0001 11.5933 21 11.5689C20.9999 11.5445 20.9925 11.5208 20.9788 11.5013C20.9652 11.4819 20.946 11.4677 20.9243 11.461C20.9026 11.4543 20.8794 11.4554 20.8583 11.4641V11.4641Z" stroke="white" stroke-width="0.8" stroke-miterlimit="10" stroke-linecap="round" stroke-linejoin="round"/>
</svg>
